<svg xmlns="http://www.w3.org/2000/svg" width="32" height="32" viewBox="0 0 32 32" shape-rendering="crispEdges">
  <!-- Bloom Fairy - Idle Frame -->
  <!-- Flower wings -->
  <rect x="5" y="6" width="3" height="3" fill="#F48FB1"/>
  <rect x="4" y="7" width="2" height="2" fill="#F06292"/>
  <rect x="8" y="5" width="2" height="2" fill="#F8BBD0"/>
  <rect x="24" y="6" width="3" height="3" fill="#F48FB1"/>
  <rect x="26" y="7" width="2" height="2" fill="#F06292"/>
  <rect x="22" y="5" width="2" height="2" fill="#F8BBD0"/>
  <!-- Body -->
  <rect x="13" y="6" width="6" height="8" fill="#FFCC80"/>
  <rect x="12" y="7" width="8" height="6" fill="#FFCC80"/>
  <!-- Flower hat -->
  <rect x="14" y="3" width="4" height="3" fill="#EC407A"/>
  <rect x="13" y="4" width="6" height="2" fill="#F06292"/>
  <rect x="15" y="2" width="2" height="2" fill="#F48FB1"/>
  <rect x="16" y="1" width="1" height="2" fill="#FCE4EC"/>
  <!-- Eyes -->
  <rect x="14" y="8" width="2" height="2" fill="#3E2723"/>
  <rect x="18" y="8" width="2" height="2" fill="#3E2723"/>
  <rect x="15" y="8" width="1" height="1" fill="#FFFFFF"/>
  <rect x="19" y="8" width="1" height="1" fill="#FFFFFF"/>
  <!-- Blush -->
  <rect x="12" y="10" width="2" height="1" fill="#FFAB91"/>
  <rect x="20" y="10" width="2" height="1" fill="#FFAB91"/>
  <!-- Smile -->
  <rect x="15" y="11" width="3" height="1" fill="#BF360C"/>
  <!-- Petal dress -->
  <rect x="11" y="14" width="10" height="1" fill="#F48FB1"/>
  <rect x="10" y="15" width="12" height="2" fill="#EC407A"/>
  <rect x="11" y="17" width="10" height="2" fill="#E91E63"/>
  <rect x="12" y="19" width="8" height="1" fill="#C2185B"/>
  <!-- Legs -->
  <rect x="14" y="20" width="1" height="2" fill="#FFCC80"/>
  <rect x="17" y="20" width="1" height="2" fill="#FFCC80"/>
  <!-- Shoes -->
  <rect x="13" y="22" width="2" height="1" fill="#AD1457"/>
  <rect x="17" y="22" width="2" height="1" fill="#AD1457"/>
</svg>
