<svg xmlns="http://www.w3.org/2000/svg" width="32" height="32" viewBox="0 0 32 32" shape-rendering="crispEdges">
  <!-- Fruit Fairy with Crown - Final Evolution -->
  <!-- Crown -->
  <rect x="12" y="0" width="2" height="2" fill="#FFD54F"/>
  <rect x="18" y="0" width="2" height="2" fill="#FFD54F"/>
  <rect x="14" y="0" width="4" height="2" fill="#FFC107"/>
  <rect x="15" y="0" width="2" height="1" fill="#FFE082"/>
  <!-- Crown gems -->
  <rect x="13" y="1" width="1" height="1" fill="#E91E63"/>
  <rect x="18" y="1" width="1" height="1" fill="#E91E63"/>
  <rect x="15" y="1" width="2" height="1" fill="#F44336"/>
  <!-- Radiant wings -->
  <rect x="3" y="5" width="4" height="3" fill="#FFF9C4"/>
  <rect x="2" y="6" width="3" height="2" fill="#FFF59D"/>
  <rect x="6" y="4" width="3" height="2" fill="#FFF176"/>
  <rect x="25" y="5" width="4" height="3" fill="#FFF9C4"/>
  <rect x="27" y="6" width="3" height="2" fill="#FFF59D"/>
  <rect x="23" y="4" width="3" height="2" fill="#FFF176"/>
  <!-- Body -->
  <rect x="13" y="5" width="6" height="8" fill="#FFCC80"/>
  <rect x="12" y="6" width="8" height="6" fill="#FFCC80"/>
  <!-- Hair -->
  <rect x="13" y="4" width="6" height="2" fill="#FFB74D"/>
  <rect x="12" y="5" width="2" height="3" fill="#FFA726"/>
  <rect x="18" y="5" width="2" height="3" fill="#FFA726"/>
  <!-- Eyes (sparkly) -->
  <rect x="14" y="7" width="2" height="2" fill="#3E2723"/>
  <rect x="18" y="7" width="2" height="2" fill="#3E2723"/>
  <rect x="14" y="7" width="1" height="1" fill="#FFFFFF"/>
  <rect x="15" y="8" width="1" height="1" fill="#FFFFFF"/>
  <rect x="18" y="7" width="1" height="1" fill="#FFFFFF"/>
  <rect x="19" y="8" width="1" height="1" fill="#FFFFFF"/>
  <!-- Blush -->
  <rect x="12" y="9" width="2" height="1" fill="#FFAB91"/>
  <rect x="20" y="9" width="2" height="1" fill="#FFAB91"/>
  <!-- Smile -->
  <rect x="15" y="10" width="3" height="1" fill="#BF360C"/>
  <!-- Royal dress -->
  <rect x="11" y="13" width="10" height="1" fill="#FFD54F"/>
  <rect x="10" y="14" width="12" height="2" fill="#FFC107"/>
  <rect x="9" y="16" width="14" height="2" fill="#FFB300"/>
  <rect x="10" y="18" width="12" height="2" fill="#FFA000"/>
  <rect x="11" y="20" width="10" height="1" fill="#FF8F00"/>
  <!-- Dress gems -->
  <rect x="15" y="14" width="2" height="1" fill="#E91E63"/>
  <rect x="15" y="17" width="2" height="1" fill="#E91E63"/>
  <!-- Legs -->
  <rect x="14" y="21" width="1" height="2" fill="#FFCC80"/>
  <rect x="17" y="21" width="1" height="2" fill="#FFCC80"/>
  <!-- Shoes -->
  <rect x="13" y="23" width="2" height="1" fill="#FF6F00"/>
  <rect x="17" y="23" width="2" height="1" fill="#FF6F00"/>
  <!-- Sparkle aura -->
  <rect x="8" y="3" width="1" height="1" fill="#FFF9C4"/>
  <rect x="24" y="3" width="1" height="1" fill="#FFF9C4"/>
  <rect x="5" y="10" width="1" height="1" fill="#FFF9C4"/>
  <rect x="26" y="10" width="1" height="1" fill="#FFF9C4"/>
</svg>
