<svg xmlns="http://www.w3.org/2000/svg" width="160" height="32" viewBox="0 0 160 32" shape-rendering="crispEdges">
  <!-- Stage 1: Seed in soil -->
  <g transform="translate(0,0)">
    <rect x="8" y="24" width="16" height="4" fill="#8D6E63"/>
    <rect x="10" y="22" width="12" height="3" fill="#A1887F"/>
    <rect x="13" y="19" width="6" height="4" fill="#795548"/>
    <rect x="14" y="18" width="4" height="2" fill="#8D6E63"/>
    <rect x="15" y="17" width="2" height="2" fill="#A1887F"/>
    <rect x="12" y="18" width="1" height="1" fill="#FFE082" opacity="0.8"/>
  </g>
  <!-- Stage 2: Sprout -->
  <g transform="translate(32,0)">
    <rect x="8" y="26" width="16" height="4" fill="#8D6E63"/>
    <rect x="10" y="24" width="12" height="3" fill="#A1887F"/>
    <rect x="15" y="14" width="2" height="12" fill="#66BB6A"/>
    <rect x="10" y="14" width="5" height="2" fill="#4CAF50"/>
    <rect x="9" y="15" width="3" height="1" fill="#43A047"/>
    <rect x="17" y="12" width="5" height="2" fill="#4CAF50"/>
    <rect x="20" y="13" width="3" height="1" fill="#43A047"/>
  </g>
  <!-- Stage 3: Bud -->
  <g transform="translate(64,0)">
    <rect x="8" y="26" width="16" height="4" fill="#8D6E63"/>
    <rect x="10" y="24" width="12" height="3" fill="#A1887F"/>
    <rect x="15" y="12" width="2" height="14" fill="#66BB6A"/>
    <rect x="9" y="18" width="6" height="2" fill="#4CAF50"/>
    <rect x="17" y="16" width="6" height="2" fill="#4CAF50"/>
    <rect x="13" y="8" width="6" height="5" fill="#F48FB1"/>
    <rect x="14" y="7" width="4" height="3" fill="#F06292"/>
    <rect x="15" y="6" width="2" height="2" fill="#EC407A"/>
  </g>
  <!-- Stage 4: Bloom -->
  <g transform="translate(96,0)">
    <rect x="8" y="26" width="16" height="4" fill="#8D6E63"/>
    <rect x="10" y="24" width="12" height="3" fill="#A1887F"/>
    <rect x="15" y="12" width="2" height="14" fill="#66BB6A"/>
    <rect x="8" y="20" width="7" height="2" fill="#4CAF50"/>
    <rect x="17" y="18" width="7" height="2" fill="#4CAF50"/>
    <rect x="11" y="5" width="3" height="3" fill="#F48FB1"/>
    <rect x="18" y="5" width="3" height="3" fill="#F48FB1"/>
    <rect x="11" y="10" width="3" height="3" fill="#F48FB1"/>
    <rect x="18" y="10" width="3" height="3" fill="#F48FB1"/>
    <rect x="14" y="6" width="4" height="6" fill="#FFD54F"/>
    <rect x="13" y="7" width="6" height="4" fill="#FFCA28"/>
  </g>
  <!-- Stage 5: Fruit -->
  <g transform="translate(128,0)">
    <rect x="8" y="26" width="16" height="4" fill="#8D6E63"/>
    <rect x="10" y="24" width="12" height="3" fill="#A1887F"/>
    <rect x="15" y="10" width="2" height="16" fill="#66BB6A"/>
    <rect x="8" y="20" width="7" height="2" fill="#4CAF50"/>
    <rect x="17" y="18" width="7" height="2" fill="#4CAF50"/>
    <rect x="12" y="4" width="3" height="3" fill="#FF7043"/>
    <rect x="17" y="4" width="3" height="3" fill="#FF7043"/>
    <rect x="13" y="3" width="6" height="4" fill="#F4511E"/>
    <rect x="14" y="2" width="4" height="3" fill="#FF8A65"/>
    <rect x="15" y="1" width="2" height="2" fill="#FFAB91"/>
  </g>
</svg>
